<svg xmlns="http://www.w3.org/2000/svg" xmlns:xlink="http://www.w3.org/1999/xlink" xml:space="preserve" style="shape-rendering:geometricPrecision;text-rendering:geometricPrecision;image-rendering:optimizeQuality;" viewBox="0 0 100 125" x="0px" y="0px" fill-rule="evenodd" clip-rule="evenodd"><defs><style type="text/css">
   
    .fil0 {fill:black}
   
  </style></defs><g><path class="fil0" d="M49.9988 4.99965c24.8459,0 45.0015,20.1509 45.0015,45.0004 0,24.8494 -20.1557,45.0015 -45.0015,45.0015 -24.8459,0 -45.0004,-20.1521 -45.0004,-45.0015 0,-24.8494 20.1545,-45.0004 45.0004,-45.0004zm-30.3723 27.7053l11.8891 0c1.02875,-5.55122 2.53821,-10.5391 4.41145,-14.7025 -6.88116,3.03073 -12.5989,8.21699 -16.3005,14.7025zm21.7124 0l17.3198 0c-1.71616,-10.545 -4.95004,-17.6541 -8.65991,-17.6541 -3.70987,0 -6.94376,7.10911 -8.65991,17.6541zm27.1443 0l11.8879 0c-3.7016,-6.48548 -9.41937,-11.6717 -16.3005,-14.7025 1.87442,4.16342 3.3827,9.15125 4.41263,14.7025zm15.4655 8.96818l-14.2761 0c0.225592,2.69766 0.344885,5.48272 0.344885,8.32684 0,2.84648 -0.120473,5.62918 -0.344885,8.32802l14.2749 0c0.653155,-2.66931 1.00158,-5.45674 1.00158,-8.32802 0,-2.86892 -0.347247,-5.65871 -1.0004,-8.32684zm-24.2695 0l-19.3596 0c-0.187797,2.66813 -0.288191,5.45792 -0.288191,8.32684 0,2.87128 0.101576,5.65871 0.288191,8.32802l19.3596 0c0.185435,-2.66931 0.28701,-5.45674 0.28701,-8.32802 0,-2.86892 -0.100394,-5.65871 -0.28701,-8.32684zm-29.3542 0l-14.2761 0c-0.653155,2.66813 -1.0004,5.45792 -1.0004,8.32684 0,2.87128 0.348428,5.65871 1.00158,8.32802l14.2749 0c-0.224411,-2.69884 -0.344885,-5.48154 -0.344885,-8.32802 0,-2.84412 0.119292,-5.62918 0.344885,-8.32684zm50.0449 25.623l-11.8879 0c-1.02875,5.55004 -2.53703,10.5367 -4.41027,14.7001 6.87998,-3.03191 12.5966,-8.21699 16.2982,-14.7001zm-21.7124 0l-17.3175 0c1.71497,10.5438 4.94886,17.6541 8.65873,17.6541 3.70987,0 6.94376,-7.11029 8.65873,-17.6541zm-27.1419 0l-11.8879 0c3.7016,6.48312 9.41937,11.6682 16.2982,14.7001 -1.87206,-4.16342 -3.38152,-9.15007 -4.41027,-14.7001z"/></g><text x="0" y="115" fill="#000000" font-size="5px" font-weight="bold" font-family="'Helvetica Neue', Helvetica, Arial-Unicode, Arial, Sans-serif">Created by Richard</text><text x="0" y="120" fill="#000000" font-size="5px" font-weight="bold" font-family="'Helvetica Neue', Helvetica, Arial-Unicode, Arial, Sans-serif">from the Noun Project</text></svg>